# xmcd
# Copyright (C) 1995-1998 Ti Kan
#
# Track frame offsets:
#       150
#       14316
#       32233
#       50660
#       67096
#       83252
#       99789
#       116075
#       127245
#       142043
#       157971
#       174215
#       191836
#       210054
#       225408
#       238132
#       255157
#
# Disc length: 3624 seconds
#
# Revision: 0
# Processed by: cddbd v1.5.2PL0 Copyright (c) Steve Scherf et al.
# Submitted via: CD-Transfer v1.0
#
DISCID=d80e2611
DTITLE=Sasha - Greatest Hits
DYEAR=07
DGENRE=
TTITLE0=Coming Home
TTITLE1=If You Believe
TTITLE2=Slowly
TTITLE3=I Feel Lonley
TTITLE4=Rooftop
TTITLE5=Owner Of My Heart
TTITLE6=This Is My Time
TTITLE7=Take Good Care Of My Baby
TTITLE8=Lucky Day
TTITLE9=Turn It Into Something Special
TTITLE10=Let Me Be The One
TTITLE11=Here She Comes Again
TTITLE12=I`m Still Waiting
TTITLE13=Chemical Reaction
TTITLE14=Walk This Way
TTITLE15=We Can Leave The World
TTITLE16=Goodbye
EXTD=
EXTT0=
EXTT1=
EXTT2=
EXTT3=
EXTT4=
EXTT5=
EXTT6=
EXTT7=
EXTT8=
EXTT9=
EXTT10=
EXTT11=
EXTT12=
EXTT13=
EXTT14=
EXTT15=
EXTT16=
PLAYORDER=
